<svg xmlns="http://www.w3.org/2000/svg" xmlns:xlink="http://www.w3.org/1999/xlink" width="161.304" height="31.715" viewBox="0 0 161.304 31.715"><defs><filter id="a" x="0" y="0" width="72.407" height="31.715" filterUnits="userSpaceOnUse"><feOffset dy="3" input="SourceAlpha"/><feGaussianBlur stdDeviation="1" result="b"/><feFlood flood-opacity="0.149"/><feComposite operator="in" in2="b"/><feComposite in="SourceGraphic"/></filter></defs><g transform="translate(3 -0.953)"><g transform="translate(0 0.953)"><g transform="matrix(1, 0, 0, 1, -3, 0)" filter="url(#a)"><path d="M15.316,25.672A16.941,16.941,0,0,1,7.14,23.365a7.969,7.969,0,0,1-3.8-6.92v-.728c.083-1.407.11-2.608.165-3.577a19.737,19.737,0,0,0,0-2.471c-.137-1.4-.865-1.5-1.374-1.566C1.065,7.961.248,7.83.186,6.457L0,2.612a1.3,1.3,0,0,1,.171-.686C.515,1.3,1.8.876,3.68.615,5.218.4,7.3.231,9.625.12,16.964-.222,26.85.1,30.22,1.967A12.4,12.4,0,0,0,33.228,3.1a12.387,12.387,0,0,0,2.966-1.133h.062C39.674.155,49.491-.188,56.782.155c2.327.11,4.407.282,5.945.494,1.881.254,3.165.694,3.508,1.3a1.308,1.308,0,0,1,.171.686l-.179,3.81c-.062,1.4-.879,1.5-1.943,1.648-.543.061-1.27.192-1.373,1.565,0,.679-.021,1.49,0,2.465s.082,2.169.164,3.577v.728a7.975,7.975,0,0,1-3.831,6.92,16.929,16.929,0,0,1-8.176,2.307c-.611.041-1.3.041-1.984.041a15.481,15.481,0,0,1-10.078-3.433,21.54,21.54,0,0,1-5.78-8.464v.006a19.556,19.556,0,0,1-5.74,8.472A15.721,15.721,0,0,1,17.3,25.714l-.351,0C16.387,25.715,15.84,25.7,15.316,25.672ZM9.028,6.471l.1,8.341c.041,4.2,3.838,5.691,8.238,5.637,6.172-.075,9-4.215,10.421-9.948.071-4.159-4.909-5.241-9.754-5.241C13.469,5.26,9.028,6.218,9.028,6.471Zm29.643,4.023c1.428,5.732,4.242,9.865,10.421,9.941,4.394.055,8.2-1.435,8.238-5.637l.09-8.34c-.14-.271-4.513-1.2-9-1.2C43.577,5.259,38.6,6.34,38.672,10.494Zm7.414,4.694A3.581,3.581,0,0,1,49.34,9.149a2.079,2.079,0,1,0,2.617,2.213,3.581,3.581,0,0,1-5.871,3.827Zm-30.8,0a3.581,3.581,0,0,1,3.254-6.039,2.079,2.079,0,1,0,2.618,2.213,3.582,3.582,0,0,1-5.872,3.827Z" transform="translate(3 0)" fill="#665eff"/></g></g><path d="M13.131,0,8.253-7.26l4.342-6.908H8.271L4.983-8.886v-5.282H1.23V0H4.983V-5.388L8.569,0ZM24.275,0H28.4L21.806-14.344H20.021L13.438,0h4.113l.721-1.652h5.291ZM19.459-4.4l1.459-3.357L22.368-4.4ZM30.059,0h3.735V-6.117l4.377-8.051H33.9l-1.969,4.1-1.978-4.1H25.69l4.368,8.051ZM46.3,0h4.122L43.831-14.344H42.047L35.464,0h4.113L40.3-1.652h5.291ZM41.484-4.4l1.459-3.357L44.394-4.4Zm18.826-9.782v6.908l-7.26-7.031H51.838V.009H55.6V-6.917L62.886.141h1.2V-14.186ZM76.333,0h4.122L73.863-14.344H72.079L65.5,0h4.113l.721-1.652h5.291ZM71.517-4.4l1.459-3.357L74.426-4.4Z" transform="translate(77.848 19.409)" fill="#665eff"/></g></svg>