<svg xmlns="http://www.w3.org/2000/svg" xmlns:xlink="http://www.w3.org/1999/xlink" width="243" height="43.235" viewBox="0 0 243 43.235"><defs><style>.a,.b{fill:#fff;}.b{font-size:29px;font-family:LEMONMILK-Bold, LEMON MILK;font-weight:700;}.c{filter:url(#a);}</style><filter id="a" x="0" y="1.328" width="98.726" height="41.907" filterUnits="userSpaceOnUse"><feOffset dy="3" input="SourceAlpha"/><feGaussianBlur stdDeviation="1" result="b"/><feFlood flood-opacity="0.149"/><feComposite operator="in" in2="b"/><feComposite in="SourceGraphic"/></filter></defs><g transform="translate(-8.115 -437)"><g transform="translate(11.115 438.328)"><g class="c" transform="matrix(1, 0, 0, 1, -3, -1.33)"><path class="a" d="M21.387,35.847A23.655,23.655,0,0,1,9.97,32.626a11.128,11.128,0,0,1-5.311-9.662V21.947c.115-1.965.153-3.642.23-4.994a27.559,27.559,0,0,0,0-3.451c-.192-1.956-1.208-2.09-1.918-2.186-1.485-.2-2.626-.383-2.713-2.3L0,3.648A1.817,1.817,0,0,1,.24,2.689c.479-.872,2.272-1.466,4.9-1.831,2.147-.3,5.052-.536,8.3-.69C23.687-.31,37.491.14,42.2,2.747a17.315,17.315,0,0,0,4.2,1.582,17.3,17.3,0,0,0,4.141-1.582h.086C55.4.216,69.106-.263,79.285.216c3.25.154,6.154.393,8.3.69,2.626.355,4.419.968,4.9,1.822a1.826,1.826,0,0,1,.239.959l-.249,5.32c-.086,1.956-1.227,2.1-2.713,2.3-.758.086-1.774.268-1.917,2.185,0,.949-.029,2.08,0,3.442s.114,3.028.229,4.994v1.016a11.136,11.136,0,0,1-5.349,9.662c-3.029,1.975-7.094,2.972-11.417,3.221-.853.058-1.812.058-2.77.058a21.617,21.617,0,0,1-14.072-4.793c-3.528-2.933-6.059-7.026-8.071-11.819v.009a27.306,27.306,0,0,1-8.014,11.83c-3.632,3-8.263,4.716-14.225,4.793l-.49,0C22.881,35.907,22.117,35.887,21.387,35.847ZM12.606,9.035l.134,11.647c.058,5.867,5.359,7.947,11.5,7.87,8.618-.105,12.568-5.886,14.551-13.891.1-5.808-6.854-7.318-13.62-7.318C18.808,7.344,12.606,8.682,12.606,9.035ZM54,14.653c1.994,8,5.924,13.774,14.551,13.881,6.135.076,11.445-2,11.5-7.87l.125-11.646c-.2-.379-6.3-1.675-12.568-1.674C60.847,7.343,53.9,8.852,54,14.653ZM64.35,21.208a5,5,0,0,1,4.544-8.433,2.9,2.9,0,1,0,3.654,3.09,5,5,0,0,1-8.2,5.343Zm-43,0a5,5,0,0,1,4.544-8.433,2.9,2.9,0,1,0,3.655,3.09,5,5,0,0,1-8.2,5.343Z" transform="translate(3 1.33)"/></g></g><text class="b" transform="translate(121.115 468)"><tspan x="0" y="0">Kayana</tspan></text></g></svg>